<svg xmlns="http://www.w3.org/2000/svg" viewBox="0 0 64 64" fill="none" stroke="currentColor" stroke-width="2.5" stroke-linecap="round" stroke-linejoin="round">
  <!-- pipe body -->
  <rect x="12" y="8" width="16" height="48" rx="3" />
  <!-- pipe joint top -->
  <rect x="10" y="6" width="20" height="6" rx="2" />
  <!-- pipe joint bottom -->
  <rect x="10" y="52" width="20" height="6" rx="2" />
  <!-- faucet handle -->
  <path d="M42 20c0-6-5-10-10-10" />
  <circle cx="32" cy="10" r="4" />
  <!-- water drops -->
  <path d="M44 36c0 0 4 8 0 12s-4-8 0-12z" fill="currentColor" opacity="0.3"/>
  <path d="M52 30c0 0 3 6 0 9s-3-6 0-9z" fill="currentColor" opacity="0.2"/>
  <!-- wavy water line -->
  <path d="M40 54c2-2 6-2 8 0s6 2 8 0" stroke-width="2" opacity="0.4"/>
</svg>